<?xml version="1.0" encoding="utf-8"?>
<!-- Generator: Adobe Illustrator 17.0.0, SVG Export Plug-In . SVG Version: 6.00 Build 0)  -->
<!DOCTYPE svg PUBLIC "-//W3C//DTD SVG 1.1//EN" "http://www.w3.org/Graphics/SVG/1.1/DTD/svg11.dtd">
<svg version="1.1" id="Layer_1" xmlns="http://www.w3.org/2000/svg" xmlns:xlink="http://www.w3.org/1999/xlink" x="0px" y="0px"
	 width="26px" height="26px" viewBox="0 0 26 26" enable-background="new 0 0 26 26" xml:space="preserve">
<g>
	<path d="M16,0.187c-5.42,0-9.812,4.393-9.812,9.813c0,1.994,0.598,3.846,1.619,5.394h-0.66v1.44
		c-0.634-0.208-1.357-0.067-1.861,0.437l-4.615,4.614c-0.714,0.713-0.714,1.869,0,2.583l0.86,0.861c0.714,0.713,1.871,0.713,2.584,0
		l4.615-4.614c0.2-0.2,0.338-0.437,0.426-0.688h0.273v-2.754c1.74,1.574,4.04,2.54,6.571,2.54c5.42,0,9.813-4.393,9.813-9.813
		S21.42,0.187,16,0.187z M16,17.998c-4.418,0-7.997-3.58-7.997-7.998S11.582,2.002,16,2.002c4.418,0,7.997,3.58,7.997,7.998
		S20.418,17.998,16,17.998z"/>
	<path d="M22.945,10.674C22.388,9.057,20.218,6,16,6c-4.217,0-6.387,3.057-6.945,4.674c-0.18,0.522,0.097,1.091,0.619,1.271
		c0.521,0.178,1.091-0.097,1.271-0.619c0.003-0.008,0.069-0.187,0.209-0.453c0.405,2.318,2.415,4.085,4.849,4.085
		c2.43,0,4.439-1.761,4.848-4.074c0.127,0.244,0.193,0.415,0.202,0.443C21.197,11.74,21.585,12,22,12
		c0.108,0,0.219-0.018,0.326-0.055C22.849,11.765,23.125,11.196,22.945,10.674z M16.004,14.125c-2.249,0-3.898-1.406-4.065-4.372
		c0.484-0.54,1.168-1.091,2.11-1.428C13.66,8.777,13.417,9.358,13.417,10c0,1.426,1.157,2.583,2.583,2.583s2.583-1.157,2.583-2.583
		c0-0.643-0.244-1.225-0.633-1.677c0.973,0.346,1.671,0.919,2.157,1.475C19.928,12.903,18.248,14.125,16.004,14.125z"/>
</g>
</svg>
