<?xml version="1.0" encoding="utf-8"?>
<!-- Generator: Adobe Illustrator 17.1.0, SVG Export Plug-In . SVG Version: 6.00 Build 0)  -->
<!DOCTYPE svg PUBLIC "-//W3C//DTD SVG 1.1//EN" "http://www.w3.org/Graphics/SVG/1.1/DTD/svg11.dtd">
<svg version="1.1" id="レイヤー_1" xmlns="http://www.w3.org/2000/svg" xmlns:xlink="http://www.w3.org/1999/xlink" x="0px"
	 y="0px" viewBox="0 0 250 250" enable-background="new 0 0 250 250" xml:space="preserve">
<g>
	<path fill-rule="evenodd" clip-rule="evenodd" fill="#473A26" d="M125.117-0.082C56.061-0.082,0.082,55.898,0.082,124.951
		c0,69.054,55.979,125.034,125.035,125.034c66.88,0,121.497-52.514,124.868-118.558h-64.424c-10.375,0-15.854,21.567-32.352,21.567
		c-33.916-2.667-67.839-5.322-101.754-7.988c-0.664-1.177-1.329-2.351,0.046-3.525c30.799-0.597,61.591-1.192,92.382-1.796
		c1.942-1.013,1.942-2.272-0.011-3.78c-30.732-0.777-61.458-1.55-92.183-2.324c-1.502-1.313-1.474-2.421,0.069-4.077
		c30.714-0.795,61.418-1.969,92.125-2.757c1.451-1.333,1.439-2.646-0.036-3.975c-30.671-0.837-61.338-1.659-92.019-2.491
		c-1.513-1.186-1.51-2.36,0.021-3.534c30.665-0.926,61.334-1.842,91.998-2.761c1.954-1.441,1.954-2.879,0-4.311
		c-30.671-0.661-61.338-1.313-92.019-1.978c-1.322-1.344-1.294-2.518,0.082-3.525l101.299-7.263
		c16.492,0,21.977,21.573,32.352,21.573l64.424-0.004C246.616,52.433,191.999-0.082,125.117-0.082z"/>
</g>
</svg>
